<svg xmlns="http://www.w3.org/2000/svg" version="1.1" xmlns:xlink="http://www.w3.org/1999/xlink" xmlns:svgjs="http://svgjs.dev/svgjs" width="2000" height="828" viewBox="0 0 2000 828"><g transform="matrix(1,0,0,1,-1.2121212121212466,0.12023263380598337)"><svg viewBox="0 0 396 164" data-background-color="#282634" preserveAspectRatio="xMidYMid meet" height="828" width="2000" xmlns="http://www.w3.org/2000/svg" xmlns:xlink="http://www.w3.org/1999/xlink"><g id="tight-bounds" transform="matrix(1,0,0,1,0.2400000000000091,-0.02381419316930078)"><svg viewBox="0 0 395.52 164.0476283863386" height="164.0476283863386" width="395.52"><g><svg viewBox="0 0 395.52 164.0476283863386" height="164.0476283863386" width="395.52"><g transform="matrix(1,0,0,1,0,111.39393760411312)"><svg viewBox="0 0 395.52 52.65369078222548" height="52.65369078222548" width="395.52"><g id="textblocktransform"><svg viewBox="0 0 395.52 52.65369078222548" height="52.65369078222548" width="395.52" id="textblock"><g><svg viewBox="0 0 395.52 52.65369078222548" height="52.65369078222548" width="395.52"><g transform="matrix(1,0,0,1,0,0)"><svg width="395.52" viewBox="1.85 -35.75 272.28 36.25" height="52.65369078222548" data-palette-color="#f6f6f6"><path d="M14.55 0.25L14.55 0.25Q11.75 0.25 9.4-0.85 7.05-1.95 5.38-3.93 3.7-5.9 2.78-8.58 1.85-11.25 1.85-14.35L1.85-14.35Q1.85-18.65 3.58-22.5 5.3-26.35 8.25-29.35 11.2-32.35 14.9-34.05 18.6-35.75 22.65-35.75L22.65-35.75Q27.4-35.75 30.38-33.63 33.35-31.5 34.35-28L34.35-28 28.4-24.2Q27.75-26.85 25.78-28.25 23.8-29.65 21.15-29.65L21.15-29.65Q18.7-29.65 16.48-28.43 14.25-27.2 12.55-25.15 10.85-23.1 9.88-20.5 8.9-17.9 8.9-15.1L8.9-15.1Q8.9-12.5 9.8-10.4 10.7-8.3 12.4-7.08 14.1-5.85 16.45-5.85L16.45-5.85Q19-5.85 21.6-7.25 24.2-8.65 26.75-11.35L26.75-11.35 25.3-4.55Q22.7-2.1 20.05-0.93 17.4 0.25 14.55 0.25ZM23.85 0L26.65-13.2 19.9-13.2 21-18.25 33.45-18.25 29.55 0 23.85 0ZM49.8 0.25L49.8 0.25Q46.65 0.25 44.2-0.95 41.75-2.15 40.07-4.23 38.4-6.3 37.55-8.95 36.7-11.6 36.7-14.5L36.7-14.5Q36.7-17.7 37.8-20.83 38.9-23.95 40.87-26.63 42.85-29.3 45.5-31.35 48.15-33.4 51.22-34.58 54.3-35.75 57.6-35.75L57.6-35.75Q60.7-35.75 63.12-34.52 65.55-33.3 67.22-31.2 68.9-29.1 69.72-26.45 70.55-23.8 70.55-20.9L70.55-20.9Q70.55-17.7 69.45-14.63 68.35-11.55 66.4-8.85 64.45-6.15 61.82-4.1 59.2-2.05 56.12-0.9 53.05 0.25 49.8 0.25ZM51.15-5.85L51.15-5.85Q53.9-5.85 56.17-7.18 58.45-8.5 60.12-10.65 61.8-12.8 62.67-15.38 63.55-17.95 63.55-20.4L63.55-20.4Q63.55-22.9 62.72-24.98 61.9-27.05 60.27-28.33 58.65-29.6 56.15-29.6L56.15-29.6Q53.4-29.6 51.12-28.3 48.85-27 47.2-24.85 45.55-22.7 44.62-20.13 43.7-17.55 43.7-15.05L43.7-15.05Q43.7-12.6 44.52-10.5 45.35-8.4 47-7.13 48.65-5.85 51.15-5.85ZM78.1 0L84.4-29.45 73.75-29.45 75-35.5 103.15-35.5 101.85-29.45 91.25-29.45 85 0 78.1 0ZM124.99 0.25L124.99 0.25Q121.84 0.25 119.42-0.95 116.99-2.15 115.32-4.23 113.64-6.3 112.77-8.95 111.89-11.6 111.89-14.5L111.89-14.5Q111.89-17.75 113.02-20.85 114.14-23.95 116.12-26.63 118.09-29.3 120.74-31.35 123.39-33.4 126.44-34.58 129.49-35.75 132.79-35.75L132.79-35.75Q135.94-35.75 138.37-34.52 140.79-33.3 142.47-31.2 144.14-29.1 144.97-26.45 145.79-23.8 145.79-20.9L145.79-20.9Q145.79-17.7 144.69-14.63 143.59-11.55 141.64-8.85 139.69-6.15 137.04-4.13 134.39-2.1 131.34-0.93 128.29 0.25 124.99 0.25ZM141.94 0L135.39 0 126.84-13.15 133.34-13.15 141.94 0ZM126.39-5.85L126.39-5.85Q129.14-5.85 131.42-7.18 133.69-8.5 135.34-10.65 136.99-12.8 137.89-15.38 138.79-17.95 138.79-20.4L138.79-20.4Q138.79-22.9 137.97-24.98 137.14-27.05 135.49-28.35 133.84-29.65 131.39-29.65L131.39-29.65Q128.64-29.65 126.34-28.33 124.04-27 122.42-24.85 120.79-22.7 119.87-20.13 118.94-17.55 118.94-15.05L118.94-15.05Q118.94-12.6 119.77-10.53 120.59-8.45 122.24-7.15 123.89-5.85 126.39-5.85ZM153.74 0.5L153.74 0.5Q147.59 0.5 147.59-5.9L147.59-5.9Q147.59-6.8 147.71-7.75 147.84-8.7 148.09-9.8L148.09-9.8 151.59-26.2 158.24-26.2 155.09-11.25Q154.74-9.8 154.74-8.75L154.74-8.75Q154.74-5.2 157.74-5.2L157.74-5.2Q158.94-5.2 160.16-5.73 161.39-6.25 162.64-7.3 163.89-8.35 164.94-9.95L164.94-9.95 168.39-26.2 175.09-26.2 171.14-7.7Q171.09-7.45 171.06-7.23 171.04-7 171.04-6.8L171.04-6.8Q171.04-5.75 172.24-5.7L172.24-5.7 171.04 0Q170.14 0.15 169.46 0.25 168.79 0.35 168.24 0.35L168.24 0.35Q166.54 0.35 165.54-0.35 164.54-1.05 164.54-2.5L164.54-2.5Q164.54-2.75 164.56-3.05 164.59-3.35 164.66-3.83 164.74-4.3 164.89-4.9L164.89-4.9Q162.64-2.25 159.76-0.88 156.89 0.5 153.74 0.5ZM187.84 0.5L187.84 0.5Q184.04 0.5 181.61-1 179.19-2.5 178.04-5.03 176.89-7.55 176.89-10.6L176.89-10.6Q176.89-13.8 178.06-16.7 179.24-19.6 181.39-21.85 183.54-24.1 186.46-25.38 189.39-26.65 192.89-26.65L192.89-26.65Q196.69-26.65 199.11-25.15 201.54-23.65 202.69-21.15 203.84-18.65 203.84-15.55L203.84-15.55Q203.84-12.35 202.66-9.45 201.49-6.55 199.34-4.3 197.19-2.05 194.26-0.78 191.34 0.5 187.84 0.5ZM188.84-5.2L188.84-5.2Q190.39-5.2 191.84-5.9 193.29-6.6 194.41-7.9 195.54-9.2 196.21-10.95 196.89-12.7 196.89-14.75L196.89-14.75Q196.89-16.6 196.31-18 195.74-19.4 194.61-20.18 193.49-20.95 191.89-20.95L191.89-20.95Q190.34-20.95 188.91-20.25 187.49-19.55 186.34-18.25 185.19-16.95 184.51-15.18 183.84-13.4 183.84-11.35L183.84-11.35Q183.84-9.55 184.41-8.15 184.99-6.75 186.11-5.98 187.24-5.2 188.84-5.2ZM207.28-4.15L207.28-4.15Q207.28-4.6 207.33-5.05 207.38-5.5 207.48-6L207.48-6 210.68-21.05 207.43-21.05 208.53-26.2 211.73-26.2 213.53-34.7 220.23-34.7 218.43-26.2 223.68-26.2 222.58-21.05 217.38-21.05 214.63-8.25Q214.58-8.05 214.56-7.85 214.53-7.65 214.53-7.45L214.53-7.45Q214.53-6.5 215.08-6.1 215.63-5.7 216.43-5.7L216.43-5.7Q217.08-5.7 217.76-5.85 218.43-6 219.03-6.25 219.63-6.5 220.08-6.65L220.08-6.65 220.28-1.35Q219.28-0.9 218.03-0.48 216.78-0.05 215.43 0.2 214.08 0.45 212.73 0.45L212.73 0.45Q210.38 0.45 208.83-0.63 207.28-1.7 207.28-4.15ZM234.73 0.5L234.73 0.5Q231.43 0.5 229.01-0.93 226.58-2.35 225.31-4.88 224.03-7.4 224.03-10.6L224.03-10.6Q224.03-13.85 225.28-16.75 226.53-19.65 228.78-21.88 231.03-24.1 234.03-25.38 237.03-26.65 240.53-26.65L240.53-26.65Q243.38-26.65 245.48-25.8 247.58-24.95 248.73-23.33 249.88-21.7 249.88-19.35L249.88-19.35Q249.88-15.2 246.11-13.05 242.33-10.9 234.78-10.9L234.78-10.9Q233.28-10.9 231.53-10.98 229.78-11.05 227.73-11.25L227.73-11.25 228.58-15.45Q230.38-15.3 231.88-15.23 233.38-15.15 234.83-15.15L234.83-15.15Q238.08-15.15 239.96-15.6 241.83-16.05 242.68-16.9 243.53-17.75 243.53-18.9L243.53-18.9Q243.53-19.9 243.03-20.53 242.53-21.15 241.66-21.48 240.78-21.8 239.58-21.8L239.58-21.8Q237.63-21.8 236.01-20.88 234.38-19.95 233.18-18.35 231.98-16.75 231.33-14.7 230.68-12.65 230.68-10.35L230.68-10.35Q230.68-8.65 231.26-7.28 231.83-5.9 232.98-5.15 234.13-4.4 235.93-4.4L235.93-4.4Q237.93-4.4 239.71-5.35 241.48-6.3 242.53-8L242.53-8 247.83-6.35Q246.53-4.35 244.43-2.8 242.33-1.25 239.83-0.38 237.33 0.5 234.73 0.5ZM260.08 0.5L260.08 0.5Q256.88 0.5 254.05-0.55 251.23-1.6 249.53-3.55L249.53-3.55 252.88-7.75Q254.78-6.1 256.78-5.23 258.78-4.35 260.83-4.35L260.83-4.35Q262.23-4.35 263.23-4.78 264.23-5.2 264.78-5.93 265.33-6.65 265.33-7.6L265.33-7.6Q265.33-8.85 264.23-9.45 263.13-10.05 260.78-10.75L260.78-10.75Q258.18-11.6 256.5-12.38 254.83-13.15 254.03-14.23 253.23-15.3 253.23-16.95L253.23-16.95Q253.23-19.75 254.8-21.95 256.38-24.15 259.05-25.43 261.73-26.7 265.03-26.7L265.03-26.7Q267.88-26.7 270.13-25.83 272.38-24.95 274.13-23.1L274.13-23.1 270.58-19.05Q268.98-20.55 267.5-21.23 266.03-21.9 264.28-21.9L264.28-21.9Q262.98-21.9 261.95-21.53 260.93-21.15 260.33-20.4 259.73-19.65 259.73-18.6L259.73-18.6Q259.73-17.45 260.65-16.93 261.58-16.4 263.88-15.7L263.88-15.7Q266.68-14.9 268.48-14.03 270.28-13.15 271.18-11.95 272.08-10.75 272.08-8.9L272.08-8.9Q272.08-6.15 270.58-4.05 269.08-1.95 266.38-0.73 263.68 0.5 260.08 0.5Z" opacity="1" transform="matrix(1,0,0,1,0,0)" fill="#f6f6f6" class="wordmark-text-0" data-fill-palette-color="primary" id="text-0"></path></svg></g></svg></g></svg></g></svg></g><g transform="matrix(1,0,0,1,106.84926990658056,0)"><svg viewBox="0 0 181.82146018683886 98.96366489900845" height="98.96366489900845" width="181.82146018683886"><g><svg xmlns="http://www.w3.org/2000/svg" xmlns:xlink="http://www.w3.org/1999/xlink" version="1.1" x="0" y="0" viewBox="6.818727755444693 26.496011925012116 86.36381059150985 47.00698807498787" enable-background="new 0 0 100 100" xml:space="preserve" height="98.96366489900845" width="181.82146018683886" class="icon-icon-0" data-fill-palette-color="accent" id="icon-0"><path d="M93.18 30.024c-0.004-0.027-0.014-0.05-0.021-0.076-0.012-0.041-0.025-0.08-0.049-0.116-0.006-0.01-0.006-0.022-0.014-0.032-0.01-0.013-0.023-0.02-0.035-0.032-0.027-0.032-0.057-0.059-0.092-0.083-0.023-0.017-0.047-0.031-0.074-0.043-0.018-0.007-0.029-0.021-0.047-0.026l-8.436-2.834c-0.041-0.014-0.084-0.022-0.129-0.025l-4.297-0.26c-0.246-0.014-0.428 0.122-0.502 0.33-0.074 0.209-0.002 0.443 0.178 0.574l3.816 2.771-2.625 2.064c-0.105 0.083-0.174 0.205-0.188 0.338l-2.164 19.733-0.863-0.018-1.998-4.167c-0.068-0.141-0.195-0.229-0.338-0.262-0.088-0.031-0.18-0.047-0.273-0.025l-5.387 1.209 0.439-3.223c0.027-0.198-0.066-0.394-0.238-0.496L40.98 28.034c-0.195-0.117-0.443-0.089-0.607 0.071-0.162 0.159-0.197 0.407-0.084 0.604l6.014 10.614-16.484-7.119c-0.207-0.089-0.445-0.03-0.586 0.145-0.143 0.175-0.148 0.422-0.02 0.604L42.4 51.415c0.039 0.054 0.086 0.099 0.143 0.134l2.793 1.736-12.455 4.647-7.023-8.638c-0.039-0.05-0.09-0.092-0.146-0.123l-8.256-4.542c-0.061-0.034-0.127-0.054-0.197-0.06l-5.143-0.456c-0.104-0.009-0.211 0.015-0.303 0.069l-1.627 0.977v0.001c-0.057 0.034-0.105 0.078-0.146 0.134l-3.125 4.297c-0.137 0.188-0.127 0.445 0.025 0.621 0.098 0.113 0.236 0.173 0.379 0.173 0.078 0 0.158-0.019 0.232-0.058l6.268-3.298c0.01-0.005 0.016-0.014 0.025-0.02 0.012 0.004 0.043 0.012 0.047 0.013 0.273 0.132 3.443 2.067 5.443 3.296l7.559 11.37c0.008 0.012 0.023 0.017 0.031 0.028 0.021 0.026 0.047 0.042 0.07 0.063 0.049 0.041 0.098 0.072 0.156 0.092 0.016 0.006 0.025 0.022 0.043 0.026l8.465 2.018c0.039 0.009 0.078 0.014 0.117 0.014 0.021 0 0.043-0.001 0.062-0.004l8.08-1.04-2.057 10.017c-0.047 0.226 0.068 0.454 0.277 0.553 0.068 0.032 0.141 0.048 0.213 0.048 0.146 0 0.291-0.065 0.389-0.186l7.584-9.396h12.262 16.258l3.75 8.407c0.018 0.04 0.055 0.061 0.08 0.093l0.08 0.512c0.037 0.247 0.25 0.424 0.492 0.424 0.025 0 0.053-0.002 0.078-0.006 0.273-0.042 0.459-0.298 0.418-0.57L82.01 61.58l7.648-6.465c0.135-0.089 0.229-0.235 0.229-0.409 0-0.078-0.018-0.151-0.049-0.217l-3.445-20.517 5.725-0.913c0.195-0.031 0.355-0.175 0.404-0.367l0.65-2.475c0.006-0.022 0-0.043 0.004-0.066C93.18 30.108 93.186 30.066 93.18 30.024zM81.637 27.598l2.52 0.152 4.551 1.529-3.531-0.274c-0.025-0.001-0.047 0.007-0.07 0.009-0.027 0.001-0.053 0.004-0.08 0.01-0.055 0.013-0.104 0.036-0.15 0.065-0.016 0.009-0.035 0.01-0.049 0.021l-0.531 0.418L81.637 27.598zM78.898 53.316l9.336 1.692-6.613 5.589-3.498-7.297L78.898 53.316zM74.631 48.951L74.6 51.626l-3.971-1.776L74.631 48.951zM47.801 39.938l-5.707-10.071 26.953 16.148-0.402 2.957-20.832-8.997C47.807 39.962 47.807 39.949 47.801 39.938zM31.072 33.834l37.307 16.112-6.006 12.755L43.156 50.752 31.072 33.834zM50.432 62.922l-3.162-8.435 13.566 8.435H50.432zM8.986 48.444l1.66-2.284c0.562 0.149 1.207 0.32 1.781 0.473L8.986 48.444zM19.951 49.525c-5.453-3.351-5.635-3.411-5.703-3.434-0.135-0.044-1.484-0.404-2.533-0.683l0.475-0.284 4.877 0.432 8.078 4.444 6.797 8.359-4.467 2.397-7.369-11.083C20.066 49.614 20.014 49.563 19.951 49.525zM35.803 62.923l-7.1-1.692 4.121-2.215 12.875-4.799-1.568 7.634L35.803 62.923zM46.502 55.285l3.016 8.045-6.262 7.758L46.502 55.285zM63.375 62.922l5.92-12.574 5.312 2.377v1.59c0 0.07 0.014 0.14 0.043 0.204l3.748 8.403H63.375zM79.633 63.232c-0.002-0.003-0.004-0.006-0.006-0.01l-4.02-9.014v-1.847c0-0.027-0.012-0.05-0.016-0.076l0.023-1.901 5.391 11.242 1.107 7.169L79.633 63.232zM79.498 52.409l2.139-19.516 3.146-2.475 3.973 23.669L79.498 52.409zM91.639 32.123l-5.41 0.863-0.494-2.934 6.318 0.49L91.639 32.123z" fill="#b8860b" data-fill-palette-color="accent"></path></svg></g></svg></g><g></g></svg></g><defs></defs></svg><rect width="395.52" height="164.0476283863386" fill="none" stroke="none" visibility="hidden"></rect></g></svg></g></svg>