<svg xmlns="http://www.w3.org/2000/svg" version="1.1" xmlns:xlink="http://www.w3.org/1999/xlink" xmlns:svgjs="http://svgjs.dev/svgjs" width="2000" height="1090" viewBox="0 0 2000 1090"><g transform="matrix(1,0,0,1,-1.2121212121210192,0.30407551490088736)"><svg viewBox="0 0 396 216" data-background-color="#282634" preserveAspectRatio="xMidYMid meet" height="1090" width="2000" xmlns="http://www.w3.org/2000/svg" xmlns:xlink="http://www.w3.org/1999/xlink"><g id="tight-bounds" transform="matrix(1,0,0,1,0.23999999999995225,-0.06025716625558175)"><svg viewBox="0 0 395.52 216.12051433251116" height="216.12051433251116" width="395.52"><g><svg viewBox="0 0 395.52 216.12051433251116" height="216.12051433251116" width="395.52"><g transform="matrix(1,0,0,1,0,130.60823825047655)"><svg viewBox="0 0 395.52 85.51227608203463" height="85.51227608203463" width="395.52"><g id="textblocktransform"><svg viewBox="0 0 395.52 85.51227608203463" height="85.51227608203463" width="395.52" id="textblock"><g><svg viewBox="0 0 395.52 52.65369078222548" height="52.65369078222548" width="395.52"><g transform="matrix(1,0,0,1,0,0)"><svg width="395.52" viewBox="1.85 -35.75 272.28 36.25" height="52.65369078222548" data-palette-color="#ff4057"><path d="M14.55 0.25L14.55 0.25Q11.75 0.25 9.4-0.85 7.05-1.95 5.38-3.93 3.7-5.9 2.78-8.58 1.85-11.25 1.85-14.35L1.85-14.35Q1.85-18.65 3.58-22.5 5.3-26.35 8.25-29.35 11.2-32.35 14.9-34.05 18.6-35.75 22.65-35.75L22.65-35.75Q27.4-35.75 30.38-33.63 33.35-31.5 34.35-28L34.35-28 28.4-24.2Q27.75-26.85 25.78-28.25 23.8-29.65 21.15-29.65L21.15-29.65Q18.7-29.65 16.48-28.43 14.25-27.2 12.55-25.15 10.85-23.1 9.88-20.5 8.9-17.9 8.9-15.1L8.9-15.1Q8.9-12.5 9.8-10.4 10.7-8.3 12.4-7.08 14.1-5.85 16.45-5.85L16.45-5.85Q19-5.85 21.6-7.25 24.2-8.65 26.75-11.35L26.75-11.35 25.3-4.55Q22.7-2.1 20.05-0.93 17.4 0.25 14.55 0.25ZM23.85 0L26.65-13.2 19.9-13.2 21-18.25 33.45-18.25 29.55 0 23.85 0ZM49.8 0.25L49.8 0.25Q46.65 0.25 44.2-0.95 41.75-2.15 40.07-4.23 38.4-6.3 37.55-8.95 36.7-11.6 36.7-14.5L36.7-14.5Q36.7-17.7 37.8-20.83 38.9-23.95 40.87-26.63 42.85-29.3 45.5-31.35 48.15-33.4 51.22-34.58 54.3-35.75 57.6-35.75L57.6-35.75Q60.7-35.75 63.12-34.52 65.55-33.3 67.22-31.2 68.9-29.1 69.72-26.45 70.55-23.8 70.55-20.9L70.55-20.9Q70.55-17.7 69.45-14.63 68.35-11.55 66.4-8.85 64.45-6.15 61.82-4.1 59.2-2.05 56.12-0.9 53.05 0.25 49.8 0.25ZM51.15-5.85L51.15-5.85Q53.9-5.85 56.17-7.18 58.45-8.5 60.12-10.65 61.8-12.8 62.67-15.38 63.55-17.95 63.55-20.4L63.55-20.4Q63.55-22.9 62.72-24.98 61.9-27.05 60.27-28.33 58.65-29.6 56.15-29.6L56.15-29.6Q53.4-29.6 51.12-28.3 48.85-27 47.2-24.85 45.55-22.7 44.62-20.13 43.7-17.55 43.7-15.05L43.7-15.05Q43.7-12.6 44.52-10.5 45.35-8.4 47-7.13 48.65-5.85 51.15-5.85ZM78.1 0L84.4-29.45 73.75-29.45 75-35.5 103.15-35.5 101.85-29.45 91.25-29.45 85 0 78.1 0ZM124.99 0.25L124.99 0.25Q121.84 0.25 119.42-0.95 116.99-2.15 115.32-4.23 113.64-6.3 112.77-8.95 111.89-11.6 111.89-14.5L111.89-14.5Q111.89-17.75 113.02-20.85 114.14-23.95 116.12-26.63 118.09-29.3 120.74-31.35 123.39-33.4 126.44-34.58 129.49-35.75 132.79-35.75L132.79-35.75Q135.94-35.75 138.37-34.52 140.79-33.3 142.47-31.2 144.14-29.1 144.97-26.45 145.79-23.8 145.79-20.9L145.79-20.9Q145.79-17.7 144.69-14.63 143.59-11.55 141.64-8.85 139.69-6.15 137.04-4.13 134.39-2.1 131.34-0.93 128.29 0.25 124.99 0.25ZM141.94 0L135.39 0 126.84-13.15 133.34-13.15 141.94 0ZM126.39-5.85L126.39-5.85Q129.14-5.85 131.42-7.18 133.69-8.5 135.34-10.65 136.99-12.8 137.89-15.38 138.79-17.95 138.79-20.4L138.79-20.4Q138.79-22.9 137.97-24.98 137.14-27.05 135.49-28.35 133.84-29.65 131.39-29.65L131.39-29.65Q128.64-29.65 126.34-28.33 124.04-27 122.42-24.85 120.79-22.7 119.87-20.13 118.94-17.55 118.94-15.05L118.94-15.05Q118.94-12.6 119.77-10.53 120.59-8.45 122.24-7.15 123.89-5.85 126.39-5.85ZM153.74 0.5L153.74 0.5Q147.59 0.5 147.59-5.9L147.59-5.9Q147.59-6.8 147.71-7.75 147.84-8.7 148.09-9.8L148.09-9.8 151.59-26.2 158.24-26.2 155.09-11.25Q154.74-9.8 154.74-8.75L154.74-8.75Q154.74-5.2 157.74-5.2L157.74-5.2Q158.94-5.2 160.16-5.73 161.39-6.25 162.64-7.3 163.89-8.35 164.94-9.95L164.94-9.95 168.39-26.2 175.09-26.2 171.14-7.7Q171.09-7.45 171.06-7.23 171.04-7 171.04-6.8L171.04-6.8Q171.04-5.75 172.24-5.7L172.24-5.7 171.04 0Q170.14 0.15 169.46 0.25 168.79 0.35 168.24 0.35L168.24 0.35Q166.54 0.35 165.54-0.35 164.54-1.05 164.54-2.5L164.54-2.5Q164.54-2.75 164.56-3.05 164.59-3.35 164.66-3.83 164.74-4.3 164.89-4.9L164.89-4.9Q162.64-2.25 159.76-0.88 156.89 0.5 153.74 0.5ZM187.84 0.5L187.84 0.5Q184.04 0.5 181.61-1 179.19-2.5 178.04-5.03 176.89-7.55 176.89-10.6L176.89-10.6Q176.89-13.8 178.06-16.7 179.24-19.6 181.39-21.85 183.54-24.1 186.46-25.38 189.39-26.65 192.89-26.65L192.89-26.65Q196.69-26.65 199.11-25.15 201.54-23.65 202.69-21.15 203.84-18.65 203.84-15.55L203.84-15.55Q203.84-12.35 202.66-9.45 201.49-6.55 199.34-4.3 197.19-2.05 194.26-0.78 191.34 0.5 187.84 0.5ZM188.84-5.2L188.84-5.2Q190.39-5.2 191.84-5.9 193.29-6.6 194.41-7.9 195.54-9.2 196.21-10.95 196.89-12.7 196.89-14.75L196.89-14.75Q196.89-16.6 196.31-18 195.74-19.4 194.61-20.18 193.49-20.95 191.89-20.95L191.89-20.95Q190.34-20.95 188.91-20.25 187.49-19.55 186.34-18.25 185.19-16.95 184.51-15.18 183.84-13.4 183.84-11.35L183.84-11.35Q183.84-9.55 184.41-8.15 184.99-6.75 186.11-5.98 187.24-5.2 188.84-5.2ZM207.28-4.15L207.28-4.15Q207.28-4.6 207.33-5.05 207.38-5.5 207.48-6L207.48-6 210.68-21.05 207.43-21.05 208.53-26.2 211.73-26.2 213.53-34.7 220.23-34.7 218.43-26.2 223.68-26.2 222.58-21.05 217.38-21.05 214.63-8.25Q214.58-8.05 214.56-7.85 214.53-7.65 214.53-7.45L214.53-7.45Q214.53-6.5 215.08-6.1 215.63-5.7 216.43-5.7L216.43-5.7Q217.08-5.7 217.76-5.85 218.43-6 219.03-6.25 219.63-6.5 220.08-6.65L220.08-6.65 220.28-1.35Q219.28-0.9 218.03-0.48 216.78-0.05 215.43 0.2 214.08 0.45 212.73 0.45L212.73 0.45Q210.38 0.45 208.83-0.63 207.28-1.7 207.28-4.15ZM234.73 0.5L234.73 0.5Q231.43 0.5 229.01-0.93 226.58-2.35 225.31-4.88 224.03-7.4 224.03-10.6L224.03-10.6Q224.03-13.85 225.28-16.75 226.53-19.65 228.78-21.88 231.03-24.1 234.03-25.38 237.03-26.65 240.53-26.65L240.53-26.65Q243.38-26.65 245.48-25.8 247.58-24.95 248.73-23.33 249.88-21.7 249.88-19.35L249.88-19.35Q249.88-15.2 246.11-13.05 242.33-10.9 234.78-10.9L234.78-10.9Q233.28-10.9 231.53-10.98 229.78-11.05 227.73-11.25L227.73-11.25 228.58-15.45Q230.38-15.3 231.88-15.23 233.38-15.15 234.83-15.15L234.83-15.15Q238.08-15.15 239.96-15.6 241.83-16.05 242.68-16.9 243.53-17.75 243.53-18.9L243.53-18.9Q243.53-19.9 243.03-20.53 242.53-21.15 241.66-21.48 240.78-21.8 239.58-21.8L239.58-21.8Q237.63-21.8 236.01-20.88 234.38-19.95 233.18-18.35 231.98-16.75 231.33-14.7 230.68-12.65 230.68-10.35L230.68-10.35Q230.68-8.65 231.26-7.28 231.83-5.9 232.98-5.15 234.13-4.4 235.93-4.4L235.93-4.4Q237.93-4.4 239.71-5.35 241.48-6.3 242.53-8L242.53-8 247.83-6.35Q246.53-4.35 244.43-2.8 242.33-1.25 239.83-0.38 237.33 0.5 234.73 0.5ZM260.08 0.5L260.08 0.5Q256.88 0.5 254.05-0.55 251.23-1.6 249.53-3.55L249.53-3.55 252.88-7.75Q254.78-6.1 256.78-5.23 258.78-4.35 260.83-4.35L260.83-4.35Q262.23-4.35 263.23-4.78 264.23-5.2 264.78-5.93 265.33-6.65 265.33-7.6L265.33-7.6Q265.33-8.85 264.23-9.45 263.13-10.05 260.78-10.75L260.78-10.75Q258.18-11.6 256.5-12.38 254.83-13.15 254.03-14.23 253.23-15.3 253.23-16.95L253.23-16.95Q253.23-19.75 254.8-21.95 256.38-24.15 259.05-25.43 261.73-26.7 265.03-26.7L265.03-26.7Q267.88-26.7 270.13-25.83 272.38-24.95 274.13-23.1L274.13-23.1 270.58-19.05Q268.98-20.55 267.5-21.23 266.03-21.9 264.28-21.9L264.28-21.9Q262.98-21.9 261.95-21.53 260.93-21.15 260.33-20.4 259.73-19.65 259.73-18.6L259.73-18.6Q259.73-17.45 260.65-16.93 261.58-16.4 263.88-15.7L263.88-15.7Q266.68-14.9 268.48-14.03 270.28-13.15 271.18-11.95 272.08-10.75 272.08-8.9L272.08-8.9Q272.08-6.15 270.58-4.05 269.08-1.95 266.38-0.73 263.68 0.5 260.08 0.5Z" opacity="1" transform="matrix(1,0,0,1,0,0)" fill="#ff4057" class="wordmark-text-0" data-fill-palette-color="primary" id="text-0"></path></svg></g></svg></g><g transform="matrix(1,0,0,1,0,65.08396348733015)"><svg viewBox="0 0 395.52 20.428312594704487" height="20.428312594704487" width="395.52"><g transform="matrix(1,0,0,1,0,0)"><svg width="395.52" viewBox="2.95 -36 819.87377358336 42.35" height="20.428312594704487" data-palette-color="#dcdcdc"><path d="M18.05 0.6L18.05 0.6Q13.6 0.6 10.2-1.35 6.8-3.3 4.88-6.73 2.95-10.15 2.95-14.5L2.95-14.5Q2.95-18.9 4.58-22.73 6.2-26.55 9.08-29.45 11.95-32.35 15.78-33.98 19.6-35.6 23.95-35.6L23.95-35.6Q28.4-35.6 31.8-33.65 35.2-31.7 37.13-28.3 39.05-24.9 39.05-20.55L39.05-20.55Q39.05-16.5 37.68-12.95 36.3-9.4 33.85-6.58 31.4-3.75 28.15-1.95L28.15-1.95 34.4 6.35 26.5 6.35 22.2 0.2Q20.15 0.6 18.05 0.6ZM18.85-5.15L18.85-5.15Q21.65-5.15 24.1-6.28 26.55-7.4 28.43-9.45 30.3-11.5 31.38-14.2 32.45-16.9 32.45-20L32.45-20Q32.45-24.5 30-27.18 27.55-29.85 23.2-29.85L23.2-29.85Q20.35-29.85 17.9-28.7 15.45-27.55 13.58-25.55 11.7-23.55 10.63-20.85 9.55-18.15 9.55-15.05L9.55-15.05Q9.55-10.55 12.05-7.85 14.55-5.15 18.85-5.15ZM50.45 0.6L50.45 0.6Q46.55 0.6 44.45-1.53 42.35-3.65 42.35-7.65L42.35-7.65Q42.35-9.05 42.65-10.8L42.65-10.8 45.15-24.8 51.5-24.8 49.15-11.4Q49.05-10.8 49-10.28 48.95-9.75 48.95-9.3L48.95-9.3Q48.95-4.8 53.35-4.8L53.35-4.8Q56.05-4.8 58.1-6.68 60.15-8.55 60.75-11.8L60.75-11.8 63-24.8 69.4-24.8 65.05 0 59.4 0 59.6-4.1Q58.05-1.95 55.7-0.68 53.35 0.6 50.45 0.6ZM83.7 0.6L83.7 0.6Q80.45 0.6 78-0.85 75.55-2.3 74.17-4.78 72.8-7.25 72.8-10.45L72.8-10.45Q72.8-13.6 73.92-16.32 75.05-19.05 77.07-21.1 79.1-23.15 81.8-24.28 84.5-25.4 87.6-25.4L87.6-25.4Q90.9-25.4 93.37-24 95.85-22.6 97.25-20.15 98.65-17.7 98.65-14.45L98.65-14.45Q98.65-11.25 97.5-8.53 96.35-5.8 94.32-3.75 92.3-1.7 89.57-0.55 86.85 0.6 83.7 0.6ZM84.55-4.95L84.55-4.95Q86.7-4.95 88.4-6.15 90.1-7.35 91.1-9.43 92.1-11.5 92.1-14.1L92.1-14.1Q92.1-16.85 90.57-18.35 89.05-19.85 86.9-19.85L86.9-19.85Q84.8-19.85 83.07-18.65 81.35-17.45 80.35-15.38 79.35-13.3 79.35-10.7L79.35-10.7Q79.35-7.95 80.87-6.45 82.4-4.95 84.55-4.95ZM115.99 0L111.59 0Q108.19 0 106.17-1.4 104.14-2.8 104.14-6.25L104.14-6.25Q104.14-7.35 104.39-8.7L104.39-8.7 106.29-19.45 102.29-19.45 103.24-24.8 107.24-24.8 109.14-31.45 114.84-31.45 113.64-24.8 120.39-24.8 119.39-19.45 112.74-19.45 110.79-8.65Q110.69-8.15 110.69-7.65L110.69-7.65Q110.69-6.45 111.37-5.95 112.04-5.45 113.59-5.45L113.59-5.45 116.99-5.45 115.99 0ZM132.64 0.6L132.64 0.6Q127.69 0.6 124.77-2.25 121.84-5.1 121.84-9.95L121.84-9.95Q121.84-13.1 122.94-15.9 124.04-18.7 126.09-20.83 128.14-22.95 130.97-24.18 133.79-25.4 137.19-25.4L137.19-25.4Q140.49-25.4 142.84-24.13 145.19-22.85 146.47-20.63 147.74-18.4 147.74-15.55L147.74-15.55Q147.74-14.35 147.52-13.08 147.29-11.8 146.99-10.85L146.99-10.85 128.14-10.85Q128.14-10.45 128.14-10L128.14-10Q128.14-7.5 129.64-6.08 131.14-4.65 133.54-4.65L133.54-4.65Q135.44-4.65 136.92-5.53 138.39-6.4 139.34-7.8L139.34-7.8 145.84-7.8Q144.69-5.4 142.72-3.5 140.74-1.6 138.17-0.5 135.59 0.6 132.64 0.6ZM136.34-20.2L136.34-20.2Q134.04-20.2 131.99-18.88 129.94-17.55 128.99-14.85L128.99-14.85 141.34-14.85Q141.39-15.25 141.39-15.4L141.39-15.4Q141.44-17.6 140.04-18.9 138.64-20.2 136.34-20.2ZM160.94 0.6L160.94 0.6Q157.54 0.6 155.16-0.55 152.79-1.7 151.59-3.7 150.39-5.7 150.59-8.25L150.59-8.25 156.99-8.25Q156.94-6.5 158.14-5.4 159.34-4.3 161.74-4.3L161.74-4.3Q163.84-4.3 165.01-5.2 166.19-6.1 166.19-7.5L166.19-7.5Q166.19-8.75 164.94-9.33 163.69-9.9 161.74-10.35L161.74-10.35Q159.69-10.85 157.74-11.65 155.79-12.45 154.51-13.75 153.24-15.05 153.24-17.1L153.24-17.1Q153.24-19.5 154.66-21.38 156.09-23.25 158.59-24.33 161.09-25.4 164.34-25.4L164.34-25.4Q168.74-25.4 171.29-23.3 173.84-21.2 173.74-17.6L173.74-17.6 167.59-17.6Q167.54-18.9 166.46-19.7 165.39-20.5 163.64-20.5L163.64-20.5Q161.84-20.5 160.71-19.73 159.59-18.95 159.59-17.8L159.59-17.8Q159.59-16.7 160.91-16.13 162.24-15.55 164.39-15.05L164.39-15.05Q166.74-14.5 168.61-13.7 170.49-12.9 171.61-11.63 172.74-10.35 172.74-8.3L172.74-8.3Q172.74-5.6 171.19-3.6 169.64-1.6 166.96-0.5 164.29 0.6 160.94 0.6ZM197.78 0L191.38 0 194.78-19.45 191.38-19.45 192.33-24.8 195.73-24.8 196.23-27.7Q197.03-32.2 199.66-34.1 202.28-36 206.23-36L206.23-36 208.93-36 207.93-30.55 206.23-30.55Q204.58-30.55 203.76-29.9 202.93-29.25 202.63-27.7L202.63-27.7 202.13-24.8 207.48-24.8 206.53-19.45 201.18-19.45 197.78 0ZM214.68 0L208.28 0 212.63-24.8 218.38-24.8 218.18-20.3Q219.93-22.6 222.51-24 225.08-25.4 228.23-25.4L228.23-25.4 227.03-18.65 225.28-18.65Q222.08-18.65 219.78-17.18 217.48-15.7 216.78-11.75L216.78-11.75 214.68 0ZM240.03 0.6L240.03 0.6Q236.78 0.6 234.33-0.85 231.88-2.3 230.5-4.78 229.13-7.25 229.13-10.45L229.13-10.45Q229.13-13.6 230.25-16.32 231.38-19.05 233.4-21.1 235.43-23.15 238.13-24.28 240.83-25.4 243.93-25.4L243.93-25.4Q247.23-25.4 249.7-24 252.18-22.6 253.58-20.15 254.98-17.7 254.98-14.45L254.98-14.45Q254.98-11.25 253.83-8.53 252.68-5.8 250.65-3.75 248.63-1.7 245.9-0.55 243.18 0.6 240.03 0.6ZM240.88-4.95L240.88-4.95Q243.03-4.95 244.73-6.15 246.43-7.35 247.43-9.43 248.43-11.5 248.43-14.1L248.43-14.1Q248.43-16.85 246.9-18.35 245.38-19.85 243.23-19.85L243.23-19.85Q241.13-19.85 239.4-18.65 237.68-17.45 236.68-15.38 235.68-13.3 235.68-10.7L235.68-10.7Q235.68-7.95 237.2-6.45 238.73-4.95 240.88-4.95ZM264.73 0L258.33 0 262.68-24.8 268.33-24.8 268.28-21.3Q269.73-23.2 271.73-24.3 273.73-25.4 276.28-25.4L276.28-25.4Q279.03-25.4 280.98-24.25 282.93-23.1 283.83-20.85L283.83-20.85Q285.48-22.95 287.83-24.18 290.18-25.4 292.83-25.4L292.83-25.4Q297.48-25.4 299.78-22.5 302.08-19.6 301.08-14L301.08-14 298.58 0 292.23 0 294.58-13.4Q295.13-16.6 294.08-18.3 293.03-20 290.63-20L290.63-20Q288.38-20 286.58-18.32 284.78-16.65 284.08-13.55L284.08-13.55 281.68 0 275.28 0 277.63-13.4Q278.23-16.6 277.2-18.3 276.18-20 273.73-20L273.73-20Q271.33-20 269.48-18.1 267.63-16.2 266.98-12.8L266.98-12.8 266.98-12.8 264.73 0ZM332.62 0L328.22 0Q324.82 0 322.8-1.4 320.77-2.8 320.77-6.25L320.77-6.25Q320.77-7.35 321.02-8.7L321.02-8.7 322.92-19.45 318.92-19.45 319.87-24.8 323.87-24.8 325.77-31.45 331.47-31.45 330.27-24.8 337.02-24.8 336.02-19.45 329.37-19.45 327.42-8.65Q327.32-8.15 327.32-7.65L327.32-7.65Q327.32-6.45 328-5.95 328.67-5.45 330.22-5.45L330.22-5.45 333.62-5.45 332.62 0ZM344.62 0L338.22 0 344.52-36 350.92-36 348.32-21Q349.87-23 352.19-24.2 354.52-25.4 357.32-25.4L357.32-25.4Q361.92-25.4 363.94-22.5 365.97-19.6 365.02-14L365.02-14 362.52 0 356.12 0 358.52-13.4Q359.07-16.6 358.07-18.3 357.07-20 354.27-20L354.27-20Q351.62-20 349.57-18.1 347.52-16.2 346.87-12.8L346.87-12.8 346.87-12.85 344.62 0ZM380.57 0.6L380.57 0.6Q375.62 0.6 372.69-2.25 369.77-5.1 369.77-9.95L369.77-9.95Q369.77-13.1 370.87-15.9 371.97-18.7 374.02-20.83 376.07-22.95 378.89-24.18 381.72-25.4 385.12-25.4L385.12-25.4Q388.42-25.4 390.77-24.13 393.12-22.85 394.39-20.63 395.67-18.4 395.67-15.55L395.67-15.55Q395.67-14.35 395.44-13.08 395.22-11.8 394.92-10.85L394.92-10.85 376.07-10.85Q376.07-10.45 376.07-10L376.07-10Q376.07-7.5 377.57-6.08 379.07-4.65 381.47-4.65L381.47-4.65Q383.37-4.65 384.84-5.53 386.32-6.4 387.27-7.8L387.27-7.8 393.77-7.8Q392.62-5.4 390.64-3.5 388.67-1.6 386.09-0.5 383.52 0.6 380.57 0.6ZM384.27-20.2L384.27-20.2Q381.97-20.2 379.92-18.88 377.87-17.55 376.92-14.85L376.92-14.85 389.27-14.85Q389.32-15.25 389.32-15.4L389.32-15.4Q389.37-17.6 387.97-18.9 386.57-20.2 384.27-20.2ZM426.91 0.6L426.91 0.6Q422.61 0.6 419.56-1.33 416.51-3.25 414.86-6.55 413.21-9.85 413.21-14.05L413.21-14.05Q413.21-18.8 414.76-22.75 416.31-26.7 419.14-29.58 421.96-32.45 425.76-34.02 429.56-35.6 434.11-35.6L434.11-35.6Q440.26-35.6 443.91-32.65 447.56-29.7 447.81-24.5L447.81-24.5 440.66-24.5Q440.31-26.95 438.44-28.33 436.56-29.7 433.21-29.7L433.21-29.7Q429.26-29.7 426.24-27.78 423.21-25.85 421.51-22.45 419.81-19.05 419.81-14.55L419.81-14.55Q419.81-10.15 422.11-7.63 424.41-5.1 428.51-5.1L428.51-5.1Q433.26-5.1 436.14-7.68 439.01-10.25 440.21-14.45L440.21-14.45 431.41-14.45 432.26-19.25 447.51-19.25 444.11 0 438.31 0 438.51-4.6Q436.41-2.1 433.66-0.75 430.91 0.6 426.91 0.6ZM458.51 0.6L458.51 0.6Q454.31 0.6 452.36-1.33 450.41-3.25 450.41-5.95L450.41-5.95Q450.41-9.95 453.76-12.3 457.11-14.65 462.71-14.65L462.71-14.65 469.01-14.65 469.11-15.25Q469.16-15.55 469.18-15.88 469.21-16.2 469.21-16.45L469.21-16.45Q469.21-18.35 468.01-19.28 466.81-20.2 464.96-20.2L464.96-20.2Q463.01-20.2 461.38-19.28 459.76-18.35 459.06-16.55L459.06-16.55 452.81-16.55Q453.56-19.25 455.43-21.25 457.31-23.25 460.01-24.33 462.71-25.4 465.86-25.4L465.86-25.4Q470.46-25.4 473.08-23.35 475.71-21.3 475.71-17.45L475.71-17.45Q475.71-16.95 475.66-16.38 475.61-15.8 475.51-15.25L475.51-15.25 472.81 0 467.11 0 467.36-3.85Q465.91-1.95 463.73-0.68 461.56 0.6 458.51 0.6ZM460.86-4.4L460.86-4.4Q463.61-4.4 465.43-6.2 467.26-8 468.11-10.65L468.11-10.65 462.71-10.65Q460.21-10.65 458.76-9.65 457.31-8.65 457.31-6.9L457.31-6.9Q457.31-5.65 458.28-5.03 459.26-4.4 460.86-4.4ZM485.36 0L478.96 0 483.31-24.8 488.96-24.8 488.91-21.3Q490.36-23.2 492.36-24.3 494.36-25.4 496.91-25.4L496.91-25.4Q499.66-25.4 501.61-24.25 503.56-23.1 504.46-20.85L504.46-20.85Q506.11-22.95 508.46-24.18 510.81-25.4 513.46-25.4L513.46-25.4Q518.11-25.4 520.41-22.5 522.71-19.6 521.71-14L521.71-14 519.21 0 512.86 0 515.21-13.4Q515.76-16.6 514.71-18.3 513.66-20 511.26-20L511.26-20Q509.01-20 507.21-18.32 505.41-16.65 504.71-13.55L504.71-13.55 502.31 0 495.91 0 498.26-13.4Q498.86-16.6 497.83-18.3 496.81-20 494.36-20L494.36-20Q491.96-20 490.11-18.1 488.26-16.2 487.61-12.8L487.61-12.8 487.61-12.8 485.36 0ZM537.25 0.6L537.25 0.6Q532.3 0.6 529.38-2.25 526.45-5.1 526.45-9.95L526.45-9.95Q526.45-13.1 527.55-15.9 528.65-18.7 530.7-20.83 532.75-22.95 535.58-24.18 538.4-25.4 541.8-25.4L541.8-25.4Q545.1-25.4 547.45-24.13 549.8-22.85 551.08-20.63 552.35-18.4 552.35-15.55L552.35-15.55Q552.35-14.35 552.13-13.08 551.9-11.8 551.6-10.85L551.6-10.85 532.75-10.85Q532.75-10.45 532.75-10L532.75-10Q532.75-7.5 534.25-6.08 535.75-4.65 538.15-4.65L538.15-4.65Q540.05-4.65 541.53-5.53 543-6.4 543.95-7.8L543.95-7.8 550.45-7.8Q549.3-5.4 547.33-3.5 545.35-1.6 542.78-0.5 540.2 0.6 537.25 0.6ZM540.95-20.2L540.95-20.2Q538.65-20.2 536.6-18.88 534.55-17.55 533.6-14.85L533.6-14.85 545.95-14.85Q546-15.25 546-15.4L546-15.4Q546.05-17.6 544.65-18.9 543.25-20.2 540.95-20.2ZM580.1 0.6L580.1 0.6Q576.85 0.6 574.4-0.85 571.95-2.3 570.57-4.78 569.2-7.25 569.2-10.45L569.2-10.45Q569.2-13.6 570.32-16.32 571.45-19.05 573.47-21.1 575.5-23.15 578.2-24.28 580.9-25.4 584-25.4L584-25.4Q587.3-25.4 589.77-24 592.25-22.6 593.65-20.15 595.05-17.7 595.05-14.45L595.05-14.45Q595.05-11.25 593.9-8.53 592.75-5.8 590.72-3.75 588.7-1.7 585.97-0.55 583.25 0.6 580.1 0.6ZM580.95-4.95L580.95-4.95Q583.1-4.95 584.8-6.15 586.5-7.35 587.5-9.43 588.5-11.5 588.5-14.1L588.5-14.1Q588.5-16.85 586.97-18.35 585.45-19.85 583.3-19.85L583.3-19.85Q581.2-19.85 579.47-18.65 577.75-17.45 576.75-15.38 575.75-13.3 575.75-10.7L575.75-10.7Q575.75-7.95 577.27-6.45 578.8-4.95 580.95-4.95ZM605.94 0L599.54 0 602.94-19.45 599.54-19.45 600.49-24.8 603.89-24.8 604.39-27.7Q605.19-32.2 607.82-34.1 610.44-36 614.39-36L614.39-36 617.09-36 616.09-30.55 614.39-30.55Q612.74-30.55 611.92-29.9 611.09-29.25 610.79-27.7L610.79-27.7 610.29-24.8 615.64-24.8 614.69-19.45 609.34-19.45 605.94 0ZM644.04 0L637.64 0 642.89-29.95 632.69-29.95 633.59-35 660.44-35 659.59-29.95 649.29-29.95 644.04 0ZM665.29 0L658.89 0 665.19-36 671.59-36 668.99-21Q670.54-23 672.86-24.2 675.19-25.4 677.99-25.4L677.99-25.4Q682.59-25.4 684.61-22.5 686.64-19.6 685.69-14L685.69-14 683.19 0 676.79 0 679.19-13.4Q679.74-16.6 678.74-18.3 677.74-20 674.94-20L674.94-20Q672.29-20 670.24-18.1 668.19-16.2 667.54-12.8L667.54-12.8 667.54-12.85 665.29 0ZM695.73 0L689.33 0 693.68-24.8 699.43-24.8 699.23-20.3Q700.98-22.6 703.56-24 706.13-25.4 709.28-25.4L709.28-25.4 708.08-18.65 706.33-18.65Q703.13-18.65 700.83-17.18 698.53-15.7 697.83-11.75L697.83-11.75 695.73 0ZM721.08 0.6L721.08 0.6Q717.83 0.6 715.38-0.85 712.93-2.3 711.56-4.78 710.18-7.25 710.18-10.45L710.18-10.45Q710.18-13.6 711.31-16.32 712.43-19.05 714.46-21.1 716.48-23.15 719.18-24.28 721.88-25.4 724.98-25.4L724.98-25.4Q728.28-25.4 730.76-24 733.23-22.6 734.63-20.15 736.03-17.7 736.03-14.45L736.03-14.45Q736.03-11.25 734.88-8.53 733.73-5.8 731.71-3.75 729.68-1.7 726.96-0.55 724.23 0.6 721.08 0.6ZM721.93-4.95L721.93-4.95Q724.08-4.95 725.78-6.15 727.48-7.35 728.48-9.43 729.48-11.5 729.48-14.1L729.48-14.1Q729.48-16.85 727.96-18.35 726.43-19.85 724.28-19.85L724.28-19.85Q722.18-19.85 720.46-18.65 718.73-17.45 717.73-15.38 716.73-13.3 716.73-10.7L716.73-10.7Q716.73-7.95 718.26-6.45 719.78-4.95 721.93-4.95ZM745.78 0L739.38 0 743.73-24.8 749.38-24.8 749.23-20.7Q750.78-22.85 753.13-24.13 755.48-25.4 758.38-25.4L758.38-25.4Q762.23-25.4 764.35-23.28 766.48-21.15 766.48-17.15L766.48-17.15Q766.48-15.75 766.18-14L766.18-14 763.68 0 757.28 0 759.68-13.4Q759.73-14 759.8-14.53 759.88-15.05 759.88-15.5L759.88-15.5Q759.88-20 755.43-20L755.43-20Q752.78-20 750.73-18.13 748.68-16.25 748.08-13L748.08-13 745.78 0ZM781.73 0.6L781.73 0.6Q776.78 0.6 773.85-2.25 770.93-5.1 770.93-9.95L770.93-9.95Q770.93-13.1 772.03-15.9 773.13-18.7 775.18-20.83 777.23-22.95 780.05-24.18 782.88-25.4 786.28-25.4L786.28-25.4Q789.58-25.4 791.93-24.13 794.28-22.85 795.55-20.63 796.83-18.4 796.83-15.55L796.83-15.55Q796.83-14.35 796.6-13.08 796.38-11.8 796.08-10.85L796.08-10.85 777.23-10.85Q777.23-10.45 777.23-10L777.23-10Q777.23-7.5 778.73-6.08 780.23-4.65 782.63-4.65L782.63-4.65Q784.53-4.65 786-5.53 787.48-6.4 788.43-7.8L788.43-7.8 794.93-7.8Q793.78-5.4 791.8-3.5 789.83-1.6 787.25-0.5 784.68 0.6 781.73 0.6ZM785.43-20.2L785.43-20.2Q783.13-20.2 781.08-18.88 779.03-17.55 778.08-14.85L778.08-14.85 790.43-14.85Q790.48-15.25 790.48-15.4L790.48-15.4Q790.53-17.6 789.13-18.9 787.73-20.2 785.43-20.2ZM810.02 0.6L810.02 0.6Q806.62 0.6 804.25-0.55 801.87-1.7 800.67-3.7 799.47-5.7 799.67-8.25L799.67-8.25 806.07-8.25Q806.02-6.5 807.22-5.4 808.42-4.3 810.82-4.3L810.82-4.3Q812.92-4.3 814.1-5.2 815.27-6.1 815.27-7.5L815.27-7.5Q815.27-8.75 814.02-9.33 812.77-9.9 810.82-10.35L810.82-10.35Q808.77-10.85 806.82-11.65 804.87-12.45 803.6-13.75 802.32-15.05 802.32-17.1L802.32-17.1Q802.32-19.5 803.75-21.38 805.17-23.25 807.67-24.33 810.17-25.4 813.42-25.4L813.42-25.4Q817.82-25.4 820.37-23.3 822.92-21.2 822.82-17.6L822.82-17.6 816.67-17.6Q816.62-18.9 815.55-19.7 814.47-20.5 812.72-20.5L812.72-20.5Q810.92-20.5 809.8-19.73 808.67-18.95 808.67-17.8L808.67-17.8Q808.67-16.7 810-16.13 811.32-15.55 813.47-15.05L813.47-15.05Q815.82-14.5 817.7-13.7 819.57-12.9 820.7-11.63 821.82-10.35 821.82-8.3L821.82-8.3Q821.82-5.6 820.27-3.6 818.72-1.6 816.05-0.5 813.37 0.6 810.02 0.6Z" opacity="1" transform="matrix(1,0,0,1,0,0)" fill="#dcdcdc" class="slogan-text-1" data-fill-palette-color="secondary" id="text-1"></path></svg></g></svg></g></svg></g></svg></g><g transform="matrix(1,0,0,1,89.19848765454957,0)"><svg viewBox="0 0 217.12302469090085 118.17796554537188" height="118.17796554537188" width="217.12302469090085"><g><svg xmlns="http://www.w3.org/2000/svg" xmlns:xlink="http://www.w3.org/1999/xlink" version="1.1" x="0" y="0" viewBox="6.818727755444693 26.496011925012116 86.36381059150985 47.00698807498787" enable-background="new 0 0 100 100" xml:space="preserve" height="118.17796554537188" width="217.12302469090085" class="icon-icon-0" data-fill-palette-color="accent" id="icon-0"><path d="M93.18 30.024c-0.004-0.027-0.014-0.05-0.021-0.076-0.012-0.041-0.025-0.08-0.049-0.116-0.006-0.01-0.006-0.022-0.014-0.032-0.01-0.013-0.023-0.02-0.035-0.032-0.027-0.032-0.057-0.059-0.092-0.083-0.023-0.017-0.047-0.031-0.074-0.043-0.018-0.007-0.029-0.021-0.047-0.026l-8.436-2.834c-0.041-0.014-0.084-0.022-0.129-0.025l-4.297-0.26c-0.246-0.014-0.428 0.122-0.502 0.33-0.074 0.209-0.002 0.443 0.178 0.574l3.816 2.771-2.625 2.064c-0.105 0.083-0.174 0.205-0.188 0.338l-2.164 19.733-0.863-0.018-1.998-4.167c-0.068-0.141-0.195-0.229-0.338-0.262-0.088-0.031-0.18-0.047-0.273-0.025l-5.387 1.209 0.439-3.223c0.027-0.198-0.066-0.394-0.238-0.496L40.98 28.034c-0.195-0.117-0.443-0.089-0.607 0.071-0.162 0.159-0.197 0.407-0.084 0.604l6.014 10.614-16.484-7.119c-0.207-0.089-0.445-0.03-0.586 0.145-0.143 0.175-0.148 0.422-0.02 0.604L42.4 51.415c0.039 0.054 0.086 0.099 0.143 0.134l2.793 1.736-12.455 4.647-7.023-8.638c-0.039-0.05-0.09-0.092-0.146-0.123l-8.256-4.542c-0.061-0.034-0.127-0.054-0.197-0.06l-5.143-0.456c-0.104-0.009-0.211 0.015-0.303 0.069l-1.627 0.977v0.001c-0.057 0.034-0.105 0.078-0.146 0.134l-3.125 4.297c-0.137 0.188-0.127 0.445 0.025 0.621 0.098 0.113 0.236 0.173 0.379 0.173 0.078 0 0.158-0.019 0.232-0.058l6.268-3.298c0.01-0.005 0.016-0.014 0.025-0.02 0.012 0.004 0.043 0.012 0.047 0.013 0.273 0.132 3.443 2.067 5.443 3.296l7.559 11.37c0.008 0.012 0.023 0.017 0.031 0.028 0.021 0.026 0.047 0.042 0.07 0.063 0.049 0.041 0.098 0.072 0.156 0.092 0.016 0.006 0.025 0.022 0.043 0.026l8.465 2.018c0.039 0.009 0.078 0.014 0.117 0.014 0.021 0 0.043-0.001 0.062-0.004l8.08-1.04-2.057 10.017c-0.047 0.226 0.068 0.454 0.277 0.553 0.068 0.032 0.141 0.048 0.213 0.048 0.146 0 0.291-0.065 0.389-0.186l7.584-9.396h12.262 16.258l3.75 8.407c0.018 0.04 0.055 0.061 0.08 0.093l0.08 0.512c0.037 0.247 0.25 0.424 0.492 0.424 0.025 0 0.053-0.002 0.078-0.006 0.273-0.042 0.459-0.298 0.418-0.57L82.01 61.58l7.648-6.465c0.135-0.089 0.229-0.235 0.229-0.409 0-0.078-0.018-0.151-0.049-0.217l-3.445-20.517 5.725-0.913c0.195-0.031 0.355-0.175 0.404-0.367l0.65-2.475c0.006-0.022 0-0.043 0.004-0.066C93.18 30.108 93.186 30.066 93.18 30.024zM81.637 27.598l2.52 0.152 4.551 1.529-3.531-0.274c-0.025-0.001-0.047 0.007-0.07 0.009-0.027 0.001-0.053 0.004-0.08 0.01-0.055 0.013-0.104 0.036-0.15 0.065-0.016 0.009-0.035 0.01-0.049 0.021l-0.531 0.418L81.637 27.598zM78.898 53.316l9.336 1.692-6.613 5.589-3.498-7.297L78.898 53.316zM74.631 48.951L74.6 51.626l-3.971-1.776L74.631 48.951zM47.801 39.938l-5.707-10.071 26.953 16.148-0.402 2.957-20.832-8.997C47.807 39.962 47.807 39.949 47.801 39.938zM31.072 33.834l37.307 16.112-6.006 12.755L43.156 50.752 31.072 33.834zM50.432 62.922l-3.162-8.435 13.566 8.435H50.432zM8.986 48.444l1.66-2.284c0.562 0.149 1.207 0.32 1.781 0.473L8.986 48.444zM19.951 49.525c-5.453-3.351-5.635-3.411-5.703-3.434-0.135-0.044-1.484-0.404-2.533-0.683l0.475-0.284 4.877 0.432 8.078 4.444 6.797 8.359-4.467 2.397-7.369-11.083C20.066 49.614 20.014 49.563 19.951 49.525zM35.803 62.923l-7.1-1.692 4.121-2.215 12.875-4.799-1.568 7.634L35.803 62.923zM46.502 55.285l3.016 8.045-6.262 7.758L46.502 55.285zM63.375 62.922l5.92-12.574 5.312 2.377v1.59c0 0.07 0.014 0.14 0.043 0.204l3.748 8.403H63.375zM79.633 63.232c-0.002-0.003-0.004-0.006-0.006-0.01l-4.02-9.014v-1.847c0-0.027-0.012-0.05-0.016-0.076l0.023-1.901 5.391 11.242 1.107 7.169L79.633 63.232zM79.498 52.409l2.139-19.516 3.146-2.475 3.973 23.669L79.498 52.409zM91.639 32.123l-5.41 0.863-0.494-2.934 6.318 0.49L91.639 32.123z" fill="#dcdcdc" data-fill-palette-color="accent"></path></svg></g></svg></g><g></g></svg></g><defs></defs></svg><rect width="395.52" height="216.12051433251116" fill="none" stroke="none" visibility="hidden"></rect></g></svg></g></svg>